<?xml version="1.0" standalone="no"?>
<!DOCTYPE svg PUBLIC "-//W3C//DTD SVG 20010904//EN"
 "http://www.w3.org/TR/2001/REC-SVG-20010904/DTD/svg10.dtd">
<svg version="1.0" xmlns="http://www.w3.org/2000/svg"
 width="993.000000pt" height="993.000000pt" viewBox="0 0 993.000000 993.000000"
 preserveAspectRatio="xMidYMid meet">
<metadata>
Created by potrace 1.11, written by Peter Selinger 2001-2013
</metadata>
<g transform="translate(0.000000,993.000000) scale(0.100000,-0.100000)"
fill="#000000" stroke="none">
<path d="M5685 8455 c-38 -7 -88 -18 -110 -23 -22 -6 -55 -14 -74 -17 -40 -7
-269 -82 -384 -127 -97 -37 -262 -118 -381 -187 -49 -28 -92 -51 -97 -51 -4 0
-9 -3 -11 -7 -1 -5 -28 -24 -58 -44 -187 -122 -425 -333 -593 -524 -103 -118
-106 -122 -178 -220 -131 -179 -233 -343 -318 -515 -24 -47 -51 -101 -61 -120
-69 -133 -233 -585 -270 -744 -19 -81 -36 -194 -32 -209 2 -5 -1 -6 -6 -3 -10
6 -5 124 7 175 54 216 166 542 246 716 103 222 147 308 208 408 40 64 77 125
82 135 34 58 200 289 261 362 57 69 330 337 404 396 210 170 479 329 711 419
52 21 105 47 118 60 l24 23 -23 12 c-35 19 -228 7 -345 -21 -22 -5 -50 -12
-62 -14 -51 -12 -256 -85 -353 -128 -236 -102 -465 -245 -670 -416 -41 -35
-76 -67 -78 -72 -7 -17 -22 -9 -22 11 0 11 -2 20 -5 20 -20 0 -153 -78 -215
-125 -209 -162 -379 -320 -560 -524 -36 -40 -70 -78 -75 -85 -6 -6 -31 -38
-55 -71 -25 -33 -47 -62 -50 -65 -14 -13 -172 -255 -219 -335 -29 -49 -56 -97
-61 -105 -43 -71 -169 -339 -234 -499 -72 -174 -195 -567 -221 -701 -2 -12 -7
-30 -10 -40 -3 -10 -8 -29 -11 -42 -2 -13 -9 -43 -14 -68 -5 -25 -12 -56 -15
-70 -2 -13 -7 -42 -10 -65 -10 -68 -33 -140 -57 -172 -13 -17 -39 -52 -58 -78
-89 -119 -207 -344 -254 -485 -28 -85 -43 -227 -50 -468 -1 -30 -3 -32 -28
-27 -48 11 -317 -99 -658 -270 -314 -156 -472 -249 -535 -314 -27 -27 -43 -37
-51 -30 -19 16 -64 -30 -94 -96 -76 -169 -81 -291 -16 -411 60 -113 359 -334
655 -484 220 -112 532 -232 826 -319 202 -60 488 -134 600 -155 11 -2 81 -16
155 -31 74 -14 147 -28 163 -31 30 -4 51 -8 147 -23 74 -11 141 -21 185 -27
17 -2 41 -6 55 -8 14 -3 50 -8 80 -12 30 -3 57 -7 60 -9 4 -2 73 -8 247 -20
23 -2 97 -6 165 -10 68 -4 139 -9 158 -11 45 -5 485 -5 525 0 17 2 66 7 110
11 44 3 94 9 110 11 29 3 101 9 265 19 68 5 207 20 270 30 66 10 140 18 265
29 92 8 248 32 371 57 28 5 64 12 80 15 238 40 617 128 927 215 60 17 120 33
135 35 14 3 145 45 291 94 223 74 406 144 566 215 32 14 152 52 189 59 11 2
44 10 71 16 28 6 59 13 69 16 10 2 33 8 51 14 18 6 41 12 51 14 39 8 101 25
164 44 36 11 112 34 170 52 373 112 883 326 1090 458 30 19 73 47 95 61 54 34
161 117 209 161 63 58 123 146 177 258 93 195 118 295 115 456 -2 92 -5 107
-35 164 -32 64 -54 83 -73 64 -7 -7 -18 -2 -34 18 -27 32 -118 80 -186 99 -37
11 -48 18 -49 35 -1 11 -2 120 -4 241 -2 209 -11 382 -20 415 -6 22 -13 68
-20 130 -3 30 -8 75 -10 100 -3 25 -7 65 -9 90 -3 25 -7 59 -10 75 -3 17 -8
46 -11 65 -3 19 -8 42 -10 50 -2 8 -7 35 -10 60 -4 24 -9 48 -12 52 -2 5 -6
18 -8 31 -11 56 -88 324 -116 399 -52 141 -128 283 -243 457 -186 278 -356
495 -483 615 -44 41 -51 53 -46 76 11 58 -166 326 -319 482 -260 265 -609 405
-913 365 -100 -13 -286 -51 -363 -73 -125 -36 -353 -128 -462 -186 -261 -139
-533 -356 -705 -563 -28 -33 -56 -66 -63 -74 -107 -113 -344 -511 -441 -741
-72 -170 -153 -397 -187 -524 -13 -50 -33 -122 -44 -161 -18 -62 -20 -90 -15
-240 4 -153 18 -258 40 -297 5 -8 2 -8 -8 2 -9 9 -26 60 -38 115 -51 242 -47
431 14 615 19 58 46 141 60 185 259 817 744 1435 1368 1746 136 68 318 140
388 154 9 2 52 12 96 24 44 11 114 25 155 31 41 6 89 13 105 15 94 14 178 17
218 6 53 -13 74 -7 83 21 7 23 -13 45 -111 119 -211 158 -406 221 -687 221
-71 0 -126 3 -123 8 13 21 -87 72 -210 108 -68 20 -140 35 -235 48 -25 3 -56
8 -70 11 -56 11 -318 10 -385 -2z m85 -409 c0 -2 -7 -7 -16 -10 -8 -3 -12 -2
-9 4 6 10 25 14 25 6z m-120 -59 c-355 -178 -650 -400 -915 -688 -143 -155
-230 -272 -362 -484 -136 -218 -244 -452 -353 -767 -99 -283 -116 -367 -120
-583 -1 -58 -3 -66 -12 -45 -5 14 -12 36 -14 50 -3 14 -9 42 -14 63 -18 84 4
276 44 372 8 19 22 61 30 94 14 55 101 284 149 391 125 282 266 516 449 747
121 152 308 341 438 443 25 19 51 40 58 47 7 7 16 13 20 13 4 0 21 12 39 28
66 56 303 200 462 279 90 46 169 83 175 83 6 -1 -27 -20 -74 -43z m-2411 -697
c-23 -27 -44 -50 -47 -50 -5 0 14 25 57 73 42 46 35 30 -10 -23z m-137 -192
c-97 -146 -136 -209 -206 -340 -26 -49 -49 -88 -52 -88 -8 0 100 201 164 304
60 98 170 256 178 256 2 0 -36 -60 -84 -132z m-421 -809 c-5 -13 -10 -19 -10
-12 -1 15 10 45 15 40 3 -2 0 -15 -5 -28z m155 -956 c11 -5 44 -15 74 -21 65
-14 57 -12 325 -57 222 -37 289 -50 344 -67 33 -10 33 -10 28 -62 -3 -28 -10
-67 -16 -86 -5 -19 -12 -53 -16 -75 -3 -23 -7 -50 -9 -61 -2 -12 -7 -45 -11
-74 -4 -29 -9 -62 -11 -74 -2 -12 -7 -34 -9 -51 -3 -16 -14 -75 -25 -130 -22
-113 -28 -145 -36 -195 -3 -19 -7 -46 -10 -60 -2 -14 -6 -38 -9 -55 -3 -16
-12 -66 -20 -110 -8 -44 -17 -93 -19 -110 -3 -16 -15 -79 -26 -140 -12 -60
-24 -127 -27 -147 -3 -21 -8 -38 -12 -38 -3 0 -5 309 -4 688 1 433 -2 699 -8
718 -10 34 -37 49 -99 58 -19 3 -46 8 -60 11 -14 3 -50 9 -80 15 -30 6 -66 13
-80 16 -14 3 -38 7 -55 10 -70 12 -256 46 -325 60 -41 9 -85 16 -98 16 -38 1
-16 11 51 23 70 13 215 12 243 -2z m-1029 -1348 c104 -215 560 -438 1198 -588
196 -46 248 -58 277 -62 12 -1 95 -15 183 -29 88 -15 171 -29 185 -31 14 -3
50 -7 80 -11 30 -3 57 -8 60 -9 3 -2 37 -6 75 -10 39 -3 77 -8 85 -10 8 -2 51
-7 95 -11 44 -3 89 -8 100 -10 11 -2 49 -6 85 -9 36 -3 84 -8 107 -10 126 -15
499 -39 608 -39 93 0 181 23 239 62 66 46 75 65 81 177 12 232 21 324 33 337
4 4 6 -114 6 -263 -1 -148 -4 -272 -6 -275 -3 -2 -16 -7 -28 -9 -93 -18 -146
-53 -172 -113 -19 -42 -20 -66 -19 -405 l2 -361 -23 29 c-23 29 -23 33 -28
382 -4 310 -7 354 -22 369 -13 13 -39 17 -125 19 -108 2 -263 14 -274 21 -3 2
-57 6 -120 9 -232 12 -388 23 -399 30 -3 2 -37 6 -75 10 -39 4 -81 8 -95 10
-14 2 -54 7 -90 10 -36 4 -74 9 -85 11 -11 2 -47 9 -80 14 -97 16 -118 20
-155 26 -19 3 -48 8 -65 11 -155 23 -477 90 -605 124 -564 151 -943 351 -1034
542 -23 49 -41 117 -31 117 2 0 17 -25 32 -55z m7685 -27 c-10 -24 -43 -69
-73 -102 -59 -65 -182 -156 -211 -156 -37 0 -16 28 59 76 86 55 189 153 218
208 26 48 32 29 7 -26z m-902 -183 c23 -60 51 -137 61 -170 l19 -60 -21 -15
c-62 -45 -97 -83 -107 -118 -8 -25 -12 -118 -12 -251 l0 -211 31 -7 c28 -5 24
-8 -58 -40 -102 -39 -148 -58 -185 -77 l-27 -14 19 36 c16 33 18 62 18 255 0
207 -1 219 -21 237 -11 11 -23 18 -26 15 -4 -2 -27 -6 -51 -10 -25 -3 -61 -10
-80 -15 -38 -10 -279 -58 -320 -64 -32 -5 -149 -25 -176 -30 -12 -2 -45 -7
-75 -11 -30 -4 -57 -9 -60 -11 -3 -1 -30 -6 -60 -9 -30 -3 -65 -8 -79 -10 -14
-2 -54 -6 -90 -10 -36 -4 -76 -8 -90 -10 -14 -2 -54 -6 -90 -10 -36 -4 -76 -8
-90 -11 -14 -2 -82 -6 -150 -9 -69 -3 -163 -7 -209 -10 -79 -4 -121 4 -121 25
0 5 17 9 38 9 20 -1 78 4 127 10 120 15 164 19 265 26 82 6 112 9 218 20 53 6
194 24 232 30 14 2 49 7 79 10 30 4 63 8 74 11 11 2 45 6 76 9 88 10 172 22
201 30 8 2 29 7 45 10 41 7 133 25 205 41 14 3 36 7 50 10 14 2 31 7 39 10 8
2 30 7 50 10 54 9 89 31 119 74 17 25 42 45 70 55 47 19 62 39 67 93 3 42 16
207 21 267 1 22 3 49 4 60 1 13 7 5 15 -20 7 -22 32 -89 55 -150z m-8259
-1212 c13 -16 12 -17 -3 -4 -17 13 -22 21 -14 21 2 0 10 -8 17 -17z m40 -30
c13 -16 12 -17 -3 -4 -10 7 -18 15 -18 17 0 8 8 3 21 -13z m69 -50 c0 -7 -39
17 -46 28 -3 6 5 3 20 -6 14 -10 26 -19 26 -22z m2207 -719 c-3 -3 -12 -4 -19
-1 -8 3 -5 6 6 6 11 1 17 -2 13 -5z m2476 -21 c-7 -2 -19 -2 -25 0 -7 3 -2 5
12 5 14 0 19 -2 13 -5z"/>
</g>
</svg>
